# xmcd CD database file
#
# Track frame offsets:
#	150
#	14766
#	36834
#	55287
#	73529
#	99081
#	119150
#	133176
#	150327
#	167607
#	184661
#
# Disc length: 2684 seconds
#
# Revision: 0
# Processed by: cddbd v1.4b42PL1 Copyright (c) Steve Scherf et al.
# Submitted via: CdAid 2001.05.15.01
#
DISCID=920a7a0b
DTITLE=Strange Brew - Lost and Broken Hearted
DYEAR=1900
DGENRE=
TTITLE0=Come Back Home
TTITLE1=Lost and Broken Hearted
TTITLE2=I Told You
TTITLE3=Lies
TTITLE4=Misunderstood
TTITLE5=Get On Out of My Life
TTITLE6=Hilltop Blues
TTITLE7=Bye Bye Baby
TTITLE8=Sugar Daddy
TTITLE9=I've Been Talkin'
TTITLE10=Itchin' Bitchin' Baby
EXTD=
EXTT0=
EXTT1=
EXTT2=
EXTT3=
EXTT4=
EXTT5=
EXTT6=
EXTT7=
EXTT8=
EXTT9=
EXTT10=
PLAYORDER=
